<svg width="27" height="26" viewBox="0 0 27 26" fill="none" xmlns="http://www.w3.org/2000/svg">
<path d="M11.2754 5.41667C11.2754 4.22005 12.2454 3.25 13.4421 3.25C14.6387 3.25 15.6087 4.22005 15.6087 5.41667C18.1439 6.61543 19.8106 9.11543 19.9421 11.9167V15.1667C20.1074 16.5325 20.9115 17.7387 22.1087 18.4167H4.77539C5.9726 17.7387 6.77672 16.5325 6.94206 15.1667V11.9167C7.07354 9.11543 8.74021 6.61543 11.2754 5.41667" stroke="#4B465C" stroke-width="2" stroke-linecap="round" stroke-linejoin="round"/>
<path d="M11.2754 5.41667C11.2754 4.22005 12.2454 3.25 13.4421 3.25C14.6387 3.25 15.6087 4.22005 15.6087 5.41667C18.1439 6.61543 19.8106 9.11543 19.9421 11.9167V15.1667C20.1074 16.5325 20.9115 17.7387 22.1087 18.4167H4.77539C5.9726 17.7387 6.77672 16.5325 6.94206 15.1667V11.9167C7.07354 9.11543 8.74021 6.61543 11.2754 5.41667" stroke="white" stroke-opacity="0.2" stroke-width="2" stroke-linecap="round" stroke-linejoin="round"/>
<path d="M10.1914 18.417V19.5003C10.1914 21.2953 11.6465 22.7503 13.4414 22.7503C15.2363 22.7503 16.6914 21.2953 16.6914 19.5003V18.417" stroke="#4B465C" stroke-width="2" stroke-linecap="round" stroke-linejoin="round"/>
<path d="M10.1914 18.417V19.5003C10.1914 21.2953 11.6465 22.7503 13.4414 22.7503C15.2363 22.7503 16.6914 21.2953 16.6914 19.5003V18.417" stroke="white" stroke-opacity="0.2" stroke-width="2" stroke-linecap="round" stroke-linejoin="round"/>
</svg>
