<svg width="118" height="114" viewBox="0 0 118 114" fill="none" xmlns="http://www.w3.org/2000/svg">
<path d="M112.62 66.9371L112.585 66.9544C108.472 70.1089 106.729 75.4768 108.193 80.4441L108.211 80.479C110.546 88.3742 104.76 96.3387 96.5333 96.548H96.4986C91.3049 96.6875 86.7386 99.9987 85.0131 104.896V104.914C82.2592 112.687 72.883 115.737 66.1032 111.048C61.8934 108.173 56.3282 108.023 51.8989 111.048H51.8816C45.1021 115.719 35.7254 112.686 32.9891 104.896C32.1445 102.506 30.5944 100.428 28.5437 98.9372C26.493 97.4466 24.0382 96.6134 21.5038 96.5478H21.4689C13.2428 96.3385 7.45629 88.374 9.79184 80.4788L9.80918 80.4439C11.2729 75.4765 9.53004 70.1087 5.41723 66.9542L5.3823 66.9369C-1.15348 61.9172 -1.15348 52.0878 5.3823 47.0684L5.41723 47.0511C9.53004 43.8966 11.2729 38.5285 9.79184 33.5614V33.5265C7.43871 25.6315 13.2425 17.6665 21.4689 17.4575H21.5038C26.68 17.318 31.2636 14.0065 32.9891 9.10927V9.09193C35.7252 1.31888 45.1021 -1.73104 51.8816 2.9574H51.8989C56.1688 5.90279 61.8156 5.90279 66.1032 2.9574C72.9512 -1.77159 82.2754 1.36552 85.0131 9.09193V9.10927C86.7386 13.9892 91.3047 17.3183 96.4986 17.4575H96.5333C104.76 17.6665 110.546 25.6315 108.211 33.5265L108.193 33.5614C106.729 38.5285 108.472 43.8966 112.585 47.0511L112.62 47.0684C119.156 52.0878 119.156 61.9175 112.62 66.9371Z" fill="#3EB655"/>
<path d="M59.0001 89.465C76.93 89.465 91.465 74.93 91.465 57.0001C91.465 39.0702 76.93 24.5352 59.0001 24.5352C41.0702 24.5352 26.5352 39.0702 26.5352 57.0001C26.5352 74.93 41.0702 89.465 59.0001 89.465Z" fill="#8BD399"/>
<path opacity="0.2" d="M83.9284 36.2184C78.313 31.5989 71.1287 28.8223 63.2969 28.8223C45.3672 28.8223 30.8242 43.3652 30.8242 61.2949C30.8242 69.1268 33.6009 76.3111 38.2202 81.9265C31.0855 75.975 26.541 67.0226 26.541 56.9993C26.541 39.0694 41.0716 24.5391 59.0012 24.5391C69.0245 24.5391 77.977 29.0836 83.9284 36.2184Z" fill="white"/>
<path d="M51.2781 69.7078L44.099 62.07C42.2189 60.0693 42.3159 56.9238 44.3158 55.0436C46.3157 53.1611 49.4627 53.2622 51.3412 55.2614L54.7682 58.9059L69.3353 42.2564C71.141 40.1901 74.2816 39.9806 76.3495 41.7888C78.4157 43.597 78.6243 46.7367 76.8171 48.8029L58.6401 69.5768C56.7037 71.7876 53.2863 71.8455 51.2781 69.7078Z" fill="white"/>
</svg>
