<svg width="10" height="10" viewBox="0 0 10 10" fill="none" xmlns="http://www.w3.org/2000/svg">
<path d="M5.09107 7.78793C5.15301 7.78099 5.20162 7.75974 5.2369 7.72418C5.27162 7.68807 5.28899 7.64488 5.28899 7.5946C5.28899 7.53571 5.26898 7.49001 5.22898 7.45751C5.18898 7.42529 5.13801 7.41265 5.07607 7.4196C4.79135 7.44043 4.47329 7.35154 4.1219 7.15293C3.77023 6.9546 3.55273 6.62265 3.4694 6.1571C3.45551 6.09154 3.43246 6.04251 3.40023 6.01001C3.36773 5.97751 3.32676 5.96126 3.27732 5.96126C3.2226 5.96126 3.17607 5.98168 3.13773 6.02251C3.0994 6.06335 3.08787 6.12446 3.10315 6.20585C3.21065 6.78418 3.47773 7.19807 3.9044 7.44751C4.33107 7.69696 4.72662 7.81043 5.09107 7.78793ZM4.9994 8.7496C4.16635 8.7496 3.47218 8.46293 2.9169 7.8896C2.36162 7.31626 2.08398 6.60293 2.08398 5.7496C2.08398 5.15126 2.32537 4.48946 2.80815 3.76418C3.29093 3.0389 4.02176 2.24349 5.00065 1.37793C5.97982 2.24376 6.71065 3.03932 7.19315 3.7646C7.67593 4.4896 7.91732 5.15126 7.91732 5.7496C7.91732 6.60321 7.63926 7.31668 7.08315 7.89001C6.52648 8.46307 5.83218 8.7496 4.9994 8.7496ZM5.00065 8.33293C5.72287 8.33293 6.3201 8.08807 6.79232 7.59835C7.26454 7.10862 7.50065 6.49237 7.50065 5.7496C7.50065 5.24265 7.29051 4.66974 6.87023 4.03085C6.44996 3.39196 5.82676 2.69404 5.00065 1.9371C4.17426 2.69404 3.55107 3.39196 3.13107 4.03085C2.71107 4.66974 2.50093 5.24265 2.50065 5.7496C2.50065 6.49265 2.73676 7.10904 3.20898 7.59876C3.68121 8.08849 4.27843 8.33321 5.00065 8.33293Z" fill="#121212"/>
</svg>
