<svg  fill="none" xmlns="http://www.w3.org/2000/svg">
<path d="M21.5664 7.3125H5.31641C3.97021 7.3125 2.87891 8.40381 2.87891 9.75V19.5C2.87891 20.8462 3.97021 21.9375 5.31641 21.9375H21.5664C22.9126 21.9375 24.0039 20.8462 24.0039 19.5V9.75C24.0039 8.40381 22.9126 7.3125 21.5664 7.3125Z" stroke="#ffffff" stroke-width="1.5" stroke-linejoin="round"/>
<path d="M21.3308 7.31266V5.78922C21.3307 5.41558 21.2481 5.04656 21.0889 4.70851C20.9298 4.37046 20.698 4.0717 20.41 3.83355C20.1221 3.5954 19.7852 3.42373 19.4233 3.33078C19.0614 3.23784 18.6834 3.22592 18.3164 3.29586L4.94266 5.57848C4.36188 5.68916 3.83794 5.99904 3.46119 6.45468C3.08444 6.91032 2.87851 7.48315 2.87891 8.07438V10.5627" stroke="#ffffff" stroke-width="1.5" stroke-linejoin="round"/>
<path d="M19.1289 16.25C18.8075 16.25 18.4933 16.1547 18.2261 15.9761C17.9589 15.7976 17.7506 15.5438 17.6276 15.2469C17.5046 14.9499 17.4724 14.6232 17.5351 14.308C17.5978 13.9928 17.7526 13.7032 17.9799 13.476C18.2071 13.2487 18.4967 13.0939 18.8119 13.0312C19.1271 12.9685 19.4538 13.0007 19.7508 13.1237C20.0477 13.2467 20.3015 13.455 20.48 13.7222C20.6586 13.9894 20.7539 14.3036 20.7539 14.625C20.7539 15.056 20.5827 15.4693 20.278 15.774C19.9732 16.0788 19.5599 16.25 19.1289 16.25Z" fill="#ffffff"/>
</svg>
